<svg width="744" height="529" viewBox="0 0 744 529" fill="none" xmlns="http://www.w3.org/2000/svg">
<path d="M265.91 134.64H253.5V147.05H265.91V134.64Z" fill="#1D1E1C"/>
<path fill-rule="evenodd" clip-rule="evenodd" d="M213.62 1.09998L222.98 78.84L91.97 134.12L213.62 1.09998Z" fill="#AFF5F0"/>
<path fill-rule="evenodd" clip-rule="evenodd" d="M290.45 70.31L213.42 0.900024L222.98 78.84L290.45 70.31Z" fill="#6DDFE8"/>
<path fill-rule="evenodd" clip-rule="evenodd" d="M251.09 203.96L290.45 70.3101L222.98 78.8401L251.09 203.96Z" fill="#6CC3E3"/>
<path fill-rule="evenodd" clip-rule="evenodd" d="M91.97 134.12L248.72 193.89L222.98 78.8401L91.97 134.12Z" fill="#62FFFA"/>
<path fill-rule="evenodd" clip-rule="evenodd" d="M366.29 227.2L290.43 70.23L251.09 203.96L366.29 227.2Z" fill="#00FFF9"/>
<path fill-rule="evenodd" clip-rule="evenodd" d="M280.68 329.27L251.09 203.96L366.29 227.2L280.68 329.27Z" fill="#71D8D2"/>
<path fill-rule="evenodd" clip-rule="evenodd" d="M333.79 311.86L366.29 227.2L280.68 329.27L333.79 311.86Z" fill="#00E3FF"/>
<path fill-rule="evenodd" clip-rule="evenodd" d="M304.9 430.22L333.79 311.86L280.68 329.27L304.9 430.22Z" fill="#09F4F6"/>
<path fill-rule="evenodd" clip-rule="evenodd" d="M488.66 259.3L333.79 311.86L366.29 227.2L488.66 259.3Z" fill="#A865D7"/>
<path fill-rule="evenodd" clip-rule="evenodd" d="M459.48 214.36L488.66 259.3L366.29 227.2L459.48 214.36Z" fill="#825CFF"/>
<path fill-rule="evenodd" clip-rule="evenodd" d="M406.01 132.91L459.48 214.36L366.29 227.2L406.01 132.91Z" fill="#D57EE6"/>
<path fill-rule="evenodd" clip-rule="evenodd" d="M406.01 132.91L366.29 227.2L290.45 70.3101L406.01 132.91Z" fill="#55D0F0"/>
<path fill-rule="evenodd" clip-rule="evenodd" d="M290.45 70.31L345.02 14.14L406.01 132.91L290.45 70.31Z" fill="#00E7FF"/>
<path fill-rule="evenodd" clip-rule="evenodd" d="M422.46 42.23L406.01 132.91L345.02 14.14L422.46 42.23Z" fill="#9E8BFC"/>
<path fill-rule="evenodd" clip-rule="evenodd" d="M473.02 6.92004L406.01 132.91L422.46 42.23L473.02 6.92004Z" fill="#EB6DA4"/>
<path fill-rule="evenodd" clip-rule="evenodd" d="M488.66 259.3L473.02 6.92004L406.01 132.91L488.66 259.3Z" fill="#DB4A84"/>
<path fill-rule="evenodd" clip-rule="evenodd" d="M568.91 108.83L473.02 6.92004L488.66 259.3L568.91 108.83Z" fill="#E55D90"/>
<path fill-rule="evenodd" clip-rule="evenodd" d="M592.58 67.1001L568.91 108.83L473.02 6.92004L592.58 67.1001Z" fill="#F78D8F"/>
<path fill-rule="evenodd" clip-rule="evenodd" d="M598.6 56.6699L568.91 108.83L723.41 170L598.6 56.6699Z" fill="#FFB985"/>
<path fill-rule="evenodd" clip-rule="evenodd" d="M488.66 259.3L723.41 170L568.91 108.83L488.66 259.3Z" fill="#DB4A84"/>
<path d="M311.52 414.35H321.96L378.93 361.37V352.16H388.82L488.66 259.3L333.79 311.86L304.9 430.22L311.52 424.06V414.35Z" fill="#FF738E"/>
<path d="M36.27 204.1V206.51H32.26V216.54H54.33V220.15H63.15V222.89L248.72 193.89L81.41 130.1L0.390015 203.53L17.41 198.49L36.27 204.1Z" fill="#2BFFDE"/>
<path d="M275.33 306.6L248.72 193.89L63.15 222.89V226.98H60.35V235.4H65.16V255.06H71.18V261.08L275.33 306.6Z" fill="#5CE3CF"/>
<path d="M635.72 281.14H630.1V278.73L662.2 267.1L667.82 275.52H671.03V280.34L675.04 286.76H671.43V291.17H677.45V265.49H672.23V257.87L678.25 253.86H682.26H686.27H696.3V247.44L703.53 243.43V230.19H706.34V220.15H700.72V218.15L721.98 208.92H735.63V204.51H730.01V198.49L743.75 190.63L723.41 170L488.66 259.3L635.72 285.26V281.14Z" fill="#FF858E"/>
<path d="M529.39 352.96V382.43L602.41 364.6V357.38L594.79 355.37V350.15H616.06V338.52H605.22L628.09 322.47V313.64H620.47V311.23L635.72 306.02V285.26L488.66 259.3L505.26 352.96H529.39Z" fill="#C42D72"/>
<path d="M344.42 443.79L353.25 446.82V398.3H378.93V361.37L321.96 414.35H344.42V443.79Z" fill="#E63B88"/>
<path d="M415.84 352.16V420.37H423.06V390.28H451.15V374.63H481.24V419.17H492.08V352.96H505.26L488.66 259.3L388.82 352.16H415.84Z" fill="#F2388A"/>
<path d="M311.52 424.06L304.9 430.22L311.52 432.49V424.06Z" fill="#E63B88"/>
<path d="M532.6 420.37V430L535.81 426.39L541.43 425.99V415.56H536.21V412.35L557.48 404.72H574.73V418.36H580.75V399.51H587.17V391.08H581.55V385.06H598.4V365.8H602.41V364.6L529.39 382.43V420.37H532.6Z" fill="#B13C68"/>
<path d="M307.11 450.06V451.67H300.28V459.29H302.69V462.5H311.52V432.49L304.9 430.22L297.57 448.51L307.11 450.06Z" fill="#00A5C0"/>
<path d="M344.42 465.31H353.25V446.82L344.42 443.79V465.31Z" fill="#00A5C0"/>
<path d="M231.67 435.22L239.7 436.42L240.1 446.05L259.76 432.81L273.8 437.62V439.23H269.39V450.06L275.01 444.85L297.57 448.51L304.9 430.22H231.67V435.22Z" fill="#6CBFB7"/>
<path d="M275.33 306.6L155.04 349.78V360.59H172.69V362.99H169.08V376.64L174.7 373.02H183.12V394.69H189.94V399.11H183.52V406.33L220.04 416.36L224.05 417.96L240.1 422.78V426.39H231.67V430.22H304.9L275.33 306.6Z" fill="#00D3CA"/>
<path d="M72.03 261.11L78.15 262.75L81.76 263.55L91.79 266.36V275.59H87.38V312.1L143.55 314.91V320.93H137.93V332.16L153.98 340.19V345H151.57V350.96L275.33 306.6L72.03 261.11Z" fill="#5DF3E7"/>
<path d="M124.03 248.78V125.49H152.03V224.3H215.43V248.78H124.03Z" fill="white"/>
<path d="M278.8 248.78V238.56C275.353 242.239 271.214 245.203 266.62 247.28C261.9 249.453 256.15 250.54 249.37 250.54C244.969 250.57 240.588 249.947 236.37 248.69C232.504 247.571 228.895 245.702 225.75 243.19C222.725 240.728 220.277 237.632 218.58 234.12C216.754 230.239 215.85 225.988 215.94 221.7V221.35C215.821 216.721 216.82 212.132 218.85 207.97C220.75 204.25 223.522 201.046 226.93 198.63C230.672 196.036 234.863 194.157 239.29 193.09C244.485 191.787 249.824 191.149 255.18 191.19C259.536 191.139 263.888 191.49 268.18 192.24C271.841 192.943 275.452 193.885 278.99 195.06V193.48C278.99 187.84 277.233 183.553 273.72 180.62C270.207 177.687 264.997 176.21 258.09 176.19C253.363 176.131 248.644 176.574 244.01 177.51C239.659 178.476 235.379 179.739 231.2 181.29L224.3 160.86C229.717 158.602 235.305 156.776 241.01 155.4C247.928 153.881 254.999 153.173 262.08 153.29C277.22 153.29 288.24 156.87 295.14 164.03C302.04 171.19 305.483 181.18 305.47 194V248.78H278.8ZM279.34 210.78C276.737 209.664 274.031 208.807 271.26 208.22C268.124 207.549 264.926 207.214 261.72 207.22C255.78 207.22 251.113 208.337 247.72 210.57C246.094 211.593 244.767 213.029 243.875 214.731C242.983 216.433 242.557 218.34 242.64 220.26V220.61C242.567 222.256 242.911 223.893 243.64 225.37C244.369 226.848 245.46 228.117 246.81 229.06C249.597 231.06 253.23 232.06 257.71 232.06C264.25 232.06 269.49 230.533 273.43 227.48C275.306 226.101 276.821 224.291 277.848 222.202C278.875 220.113 279.384 217.807 279.33 215.48L279.34 210.78Z" fill="white"/>
<path d="M445.92 187.31C443.332 192.608 439.57 197.245 434.92 200.87C430.041 204.615 424.491 207.395 418.57 209.06C412.034 210.922 405.266 211.842 398.47 211.79H377.25V248.79H349.25V125.49H401.2C408.137 125.383 415.044 126.427 421.64 128.58C427.263 130.422 432.455 133.385 436.9 137.29C441.055 141.025 444.339 145.626 446.52 150.77C448.817 156.259 449.964 162.16 449.89 168.11V168.47C450.038 174.972 448.68 181.42 445.92 187.31V187.31ZM421.58 168.64C421.58 162.54 419.55 157.903 415.49 154.73C411.43 151.557 405.89 149.97 398.87 149.97H377.25V187.66H399.41C406.443 187.66 411.893 185.87 415.76 182.29C417.631 180.626 419.12 178.576 420.125 176.282C421.13 173.988 421.626 171.504 421.58 169V168.64Z" fill="white"/>
<path d="M506.05 248.78V238.56C502.607 242.239 498.471 245.202 493.88 247.28C489.147 249.453 483.393 250.54 476.62 250.54C472.219 250.569 467.838 249.946 463.62 248.69C459.754 247.571 456.145 245.702 453 243.19C449.975 240.728 447.527 237.632 445.83 234.12C444.004 230.239 443.1 225.988 443.19 221.7V221.35C443.071 216.721 444.07 212.132 446.1 207.97C448.004 204.253 450.776 201.049 454.18 198.63C457.924 196.039 462.114 194.16 466.54 193.09C471.748 191.784 477.101 191.145 482.47 191.19C486.826 191.138 491.178 191.489 495.47 192.24C499.131 192.943 502.742 193.885 506.28 195.06V193.48C506.28 187.84 504.523 183.553 501.01 180.62C497.497 177.687 492.273 176.21 485.34 176.19C480.613 176.132 475.894 176.574 471.26 177.51C466.915 178.486 462.641 179.759 458.47 181.32L451.57 160.89C456.987 158.632 462.575 156.806 468.28 155.43C475.198 153.911 482.269 153.203 489.35 153.32C504.49 153.32 515.513 156.9 522.42 164.06C529.327 171.22 532.777 181.2 532.77 194V248.78H506.05ZM506.59 210.78C503.975 209.652 501.255 208.784 498.47 208.19C495.334 207.519 492.137 207.184 488.93 207.19C483.003 207.19 478.337 208.307 474.93 210.54C473.304 211.563 471.977 212.999 471.085 214.701C470.193 216.403 469.767 218.31 469.85 220.23V220.58C469.777 222.227 470.123 223.865 470.853 225.343C471.584 226.82 472.677 228.089 474.03 229.03C476.81 231.03 480.44 232.03 484.92 232.03C491.46 232.03 496.7 230.503 500.64 227.45C502.516 226.071 504.031 224.261 505.058 222.172C506.085 220.083 506.594 217.777 506.54 215.45L506.59 210.78Z" fill="white"/>
<path d="M534.57 248.78V229.93L584.89 176.04H536.2V154.38H619.2V173.19L568.7 227.08H619.2V248.75L534.57 248.78Z" fill="white"/>
<path d="M144.47 291.24C142.49 292.218 140.296 292.682 138.09 292.59C136.209 292.607 134.344 292.239 132.61 291.51C130.991 290.837 129.521 289.85 128.285 288.605C127.049 287.361 126.072 285.884 125.41 284.26C124.732 282.583 124.392 280.789 124.41 278.98V278.88C124.397 275.272 125.789 271.8 128.29 269.2C129.53 267.94 131.009 266.94 132.64 266.26C134.406 265.52 136.305 265.15 138.22 265.17C140.345 265.102 142.459 265.505 144.41 266.35C146.048 267.142 147.515 268.246 148.73 269.6L144.16 274.51C143.388 273.685 142.503 272.975 141.53 272.4C140.501 271.84 139.341 271.567 138.17 271.61C137.277 271.597 136.394 271.792 135.59 272.18C134.828 272.556 134.148 273.08 133.59 273.72C133.011 274.394 132.563 275.171 132.27 276.01C131.955 276.899 131.796 277.836 131.8 278.78V278.88C131.793 279.85 131.952 280.814 132.27 281.73C132.563 282.581 133.022 283.367 133.62 284.04C134.211 284.694 134.929 285.221 135.73 285.59C136.59 285.983 137.524 286.188 138.47 286.19C139.607 286.217 140.732 285.956 141.74 285.43C142.742 284.88 143.673 284.208 144.51 283.43L148.89 287.85C147.615 289.218 146.122 290.363 144.47 291.24V291.24Z" fill="white"/>
<path d="M152.23 262.77V256.19H160.09V262.82L152.23 262.77ZM152.42 292V265.67H159.89V292H152.42Z" fill="white"/>
<path d="M181.75 292V288.19C181.319 288.757 180.851 289.294 180.35 289.8C179.839 290.315 179.272 290.771 178.66 291.16C178.016 291.567 177.32 291.883 176.59 292.1C175.762 292.343 174.903 292.46 174.04 292.45C172.815 292.524 171.589 292.329 170.448 291.88C169.306 291.431 168.276 290.738 167.43 289.85C165.778 287.835 164.946 285.271 165.1 282.67V265.67H172.56V280.32C172.455 281.752 172.874 283.174 173.74 284.32C174.162 284.779 174.68 285.138 175.258 285.371C175.836 285.605 176.458 285.707 177.08 285.67C177.713 285.702 178.346 285.597 178.936 285.365C179.526 285.132 180.059 284.776 180.5 284.32C181.411 283.195 181.858 281.764 181.75 280.32V265.67H189.22V292H181.75Z" fill="white"/>
<path d="M213.29 292V288.25C212.386 289.454 211.259 290.472 209.97 291.25C208.485 292.1 206.79 292.516 205.08 292.45C203.546 292.449 202.027 292.147 200.61 291.56C199.16 290.971 197.854 290.078 196.78 288.94C195.623 287.696 194.714 286.244 194.1 284.66C193.4 282.801 193.061 280.826 193.1 278.84V278.74C193.062 276.754 193.402 274.779 194.1 272.92C194.71 271.342 195.613 269.893 196.76 268.65C197.822 267.509 199.118 266.612 200.56 266.02C201.994 265.431 203.53 265.128 205.08 265.13C206.803 265.061 208.511 265.466 210.02 266.3C211.249 267.029 212.353 267.951 213.29 269.03V256.19H220.76V292.05L213.29 292ZM213.39 278.78C213.4 277.757 213.224 276.74 212.87 275.78C212.562 274.928 212.097 274.141 211.5 273.46C210.945 272.829 210.264 272.321 209.5 271.97C208.713 271.621 207.861 271.441 207 271.441C206.139 271.441 205.287 271.621 204.5 271.97C203.739 272.325 203.058 272.832 202.5 273.46C201.891 274.13 201.416 274.911 201.1 275.76C200.745 276.72 200.568 277.737 200.58 278.76V278.86C200.569 279.883 200.746 280.9 201.1 281.86C201.404 282.717 201.869 283.508 202.47 284.19C203.029 284.815 203.709 285.318 204.47 285.67C205.641 286.208 206.954 286.354 208.215 286.087C209.475 285.821 210.617 285.156 211.47 284.19C212.065 283.504 212.53 282.714 212.84 281.86C213.194 280.9 213.371 279.883 213.36 278.86L213.39 278.78Z" fill="white"/>
<path d="M241.24 292V289.19C240.313 290.208 239.195 291.033 237.95 291.62C236.481 292.268 234.885 292.579 233.28 292.53C232.09 292.539 230.906 292.364 229.77 292.01C228.72 291.694 227.744 291.171 226.9 290.47C226.076 289.779 225.414 288.915 224.96 287.94C224.462 286.852 224.215 285.666 224.24 284.47V284.37C224.206 283.082 224.476 281.804 225.03 280.64C225.534 279.609 226.283 278.717 227.21 278.04C228.218 277.315 229.355 276.789 230.56 276.49C231.962 276.133 233.404 275.958 234.85 275.97C236.03 275.955 237.209 276.056 238.37 276.27C239.36 276.464 240.335 276.725 241.29 277.05V276.61C241.335 275.944 241.229 275.277 240.982 274.658C240.734 274.038 240.351 273.482 239.86 273.03C238.647 272.126 237.149 271.689 235.64 271.8C234.36 271.782 233.082 271.906 231.83 272.17C230.653 272.424 229.497 272.765 228.37 273.19L226.5 267.49C227.963 266.861 229.474 266.353 231.02 265.97C232.889 265.546 234.803 265.348 236.72 265.38C240.807 265.38 243.787 266.38 245.66 268.38C247.533 270.38 248.467 273.163 248.46 276.73V292.01L241.24 292ZM241.39 281.39C240.687 281.076 239.953 280.834 239.2 280.67C238.353 280.485 237.487 280.395 236.62 280.4C235.295 280.332 233.979 280.659 232.84 281.34C232.394 281.631 232.033 282.033 231.791 282.506C231.549 282.98 231.435 283.509 231.46 284.04V284.14C231.44 284.596 231.533 285.05 231.73 285.461C231.927 285.873 232.222 286.23 232.59 286.5C233.46 287.084 234.493 287.375 235.54 287.33C237.062 287.411 238.565 286.958 239.79 286.05C240.301 285.659 240.713 285.153 240.991 284.572C241.269 283.992 241.406 283.354 241.39 282.71V281.39Z" fill="white"/>
<path d="M272.29 292V288.25C271.384 289.451 270.257 290.469 268.97 291.25C267.485 292.1 265.79 292.516 264.08 292.45C262.546 292.449 261.027 292.147 259.61 291.56C258.16 290.971 256.854 290.078 255.78 288.94C254.62 287.699 253.71 286.246 253.1 284.66C252.4 282.801 252.061 280.826 252.1 278.84V278.74C252.062 276.754 252.402 274.779 253.1 272.92C253.707 271.34 254.61 269.891 255.76 268.65C256.822 267.509 258.118 266.612 259.56 266.02C260.994 265.43 262.53 265.128 264.08 265.13C265.803 265.061 267.511 265.466 269.02 266.3C270.249 267.029 271.353 267.951 272.29 269.03V256.19H279.75V292.05L272.29 292ZM272.39 278.78C272.4 277.757 272.224 276.74 271.87 275.78C271.562 274.926 271.094 274.138 270.49 273.46C269.938 272.826 269.256 272.317 268.49 271.97C267.703 271.621 266.851 271.441 265.99 271.441C265.129 271.441 264.277 271.621 263.49 271.97C262.729 272.325 262.048 272.832 261.49 273.46C260.881 274.13 260.406 274.911 260.09 275.76C259.735 276.72 259.558 277.737 259.57 278.76V278.86C259.559 279.883 259.736 280.9 260.09 281.86C260.397 282.718 260.865 283.509 261.47 284.19C262.029 284.815 262.709 285.318 263.47 285.67C264.257 286.019 265.109 286.199 265.97 286.199C266.831 286.199 267.683 286.019 268.47 285.67C269.235 285.326 269.918 284.821 270.47 284.19C271.072 283.507 271.54 282.716 271.85 281.86C272.204 280.9 272.381 279.883 272.37 278.86L272.39 278.78Z" fill="white"/>
<path d="M288.99 284.36C289.478 285.38 290.157 286.296 290.99 287.06C291.795 287.787 292.732 288.354 293.75 288.73C294.77 289.111 295.851 289.304 296.94 289.3C298.512 289.341 300.071 288.998 301.48 288.3C302.77 287.627 303.942 286.749 304.95 285.7L307.3 287.81C306.066 289.222 304.585 290.398 302.93 291.28C301.035 292.2 298.945 292.646 296.84 292.58C295.153 292.578 293.483 292.238 291.93 291.58C290.431 290.954 289.071 290.036 287.93 288.88C286.746 287.674 285.812 286.247 285.18 284.68C284.492 282.96 284.152 281.122 284.18 279.27C284.167 277.502 284.475 275.747 285.09 274.09C285.65 272.532 286.51 271.098 287.62 269.87C288.701 268.691 290.011 267.745 291.47 267.09C293.007 266.402 294.676 266.061 296.36 266.09C298.085 266.06 299.795 266.422 301.36 267.15C302.797 267.824 304.07 268.803 305.09 270.02C306.134 271.277 306.919 272.728 307.4 274.29C307.938 275.991 308.204 277.766 308.19 279.55V280.09C308.187 280.304 308.17 280.518 308.14 280.73H288.01C288.118 281.989 288.45 283.218 288.99 284.36V284.36ZM304.27 277.9C304.174 276.778 303.935 275.672 303.56 274.61C303.212 273.606 302.683 272.674 302 271.86C301.296 271.015 300.409 270.34 299.405 269.888C298.402 269.436 297.31 269.218 296.21 269.25C295.146 269.239 294.093 269.468 293.13 269.92C292.191 270.356 291.345 270.971 290.64 271.73C289.905 272.533 289.313 273.457 288.89 274.46C288.419 275.554 288.122 276.714 288.01 277.9H304.27Z" fill="white"/>
<path d="M316.94 292H313.16V266.6H316.94V271.02C317.803 269.635 318.94 268.441 320.28 267.51C321.872 266.48 323.746 265.973 325.64 266.06C327.042 266.032 328.436 266.284 329.74 266.8C330.897 267.261 331.938 267.971 332.79 268.88C333.639 269.812 334.289 270.908 334.7 272.1C335.153 273.429 335.377 274.826 335.36 276.23V292H331.58V277.19C331.693 275.162 331.044 273.164 329.76 271.59C329.098 270.885 328.289 270.335 327.39 269.979C326.491 269.623 325.525 269.47 324.56 269.53C323.534 269.525 322.516 269.715 321.56 270.09C320.643 270.456 319.813 271.007 319.12 271.71C318.408 272.416 317.846 273.26 317.47 274.19C317.081 275.229 316.888 276.331 316.9 277.44L316.94 292Z" fill="white"/>
<path d="M373.63 292V277.35C373.737 275.925 373.336 274.508 372.5 273.35C372.098 272.893 371.597 272.535 371.036 272.301C370.475 272.067 369.867 271.964 369.26 272C368.643 271.968 368.026 272.072 367.454 272.305C366.882 272.539 366.368 272.895 365.95 273.35C365.064 274.487 364.632 275.913 364.74 277.35V292H357.27V277.35C357.374 275.927 356.978 274.512 356.15 273.35C355.747 272.892 355.245 272.532 354.681 272.298C354.118 272.064 353.509 271.962 352.9 272C352.283 271.968 351.666 272.072 351.094 272.305C350.522 272.539 350.008 272.895 349.59 273.35C348.704 274.487 348.272 275.913 348.38 277.35V292H340.92V265.67H348.38V269.43C348.814 268.866 349.281 268.328 349.78 267.82C350.297 267.308 350.867 266.852 351.48 266.46C352.131 266.053 352.834 265.737 353.57 265.52C355.936 264.868 358.46 265.132 360.64 266.26C361.901 266.987 362.918 268.073 363.56 269.38C364.609 268.082 365.912 267.014 367.39 266.24C368.89 265.508 370.541 265.142 372.21 265.17C373.41 265.102 374.611 265.286 375.735 265.71C376.86 266.133 377.883 266.787 378.74 267.63C380.32 269.27 381.1 271.68 381.1 274.85V292H373.63Z" fill="white"/>
<path d="M412.1 284.19C411.395 285.823 410.376 287.301 409.1 288.54C407.797 289.804 406.262 290.806 404.58 291.49C402.774 292.224 400.84 292.591 398.89 292.57C396.956 292.587 395.037 292.226 393.24 291.51C391.579 290.861 390.063 289.889 388.78 288.65C387.498 287.41 386.475 285.928 385.77 284.29C385.044 282.608 384.676 280.792 384.69 278.96V278.86C384.677 277.028 385.045 275.213 385.77 273.53C386.48 271.9 387.499 270.423 388.77 269.18C390.077 267.923 391.611 266.926 393.29 266.24C395.099 265.503 397.037 265.133 398.99 265.15C400.924 265.136 402.843 265.496 404.64 266.21C406.315 266.874 407.843 267.859 409.14 269.11C410.413 270.34 411.432 271.808 412.14 273.43C412.865 275.113 413.233 276.928 413.22 278.76V278.86C413.222 280.695 412.84 282.511 412.1 284.19V284.19ZM405.81 278.86C405.818 277.914 405.652 276.975 405.32 276.09C405.002 275.23 404.516 274.442 403.891 273.771C403.266 273.1 402.515 272.559 401.68 272.18C400.804 271.783 399.852 271.581 398.89 271.59C397.9 271.571 396.918 271.765 396.01 272.16C395.197 272.518 394.468 273.043 393.87 273.7C393.275 274.368 392.816 275.146 392.52 275.99C392.208 276.88 392.052 277.817 392.06 278.76V278.86C392.052 279.809 392.218 280.751 392.55 281.64C392.87 282.494 393.352 283.279 393.97 283.95C394.588 284.619 395.333 285.159 396.16 285.54C397.043 285.948 398.007 286.15 398.98 286.13C399.969 286.146 400.95 285.956 401.86 285.57C402.668 285.204 403.393 284.677 403.99 284.02C404.586 283.351 405.047 282.573 405.35 281.73C405.663 280.84 405.818 279.903 405.81 278.96V278.86Z" fill="white"/>
<path d="M431.75 292.19H424.97L414.6 265.67H422.47L428.37 283.3L434.31 265.67H442.07L431.75 292.19Z" fill="white"/>
<path d="M444.96 262.77V256.19H452.82V262.82L444.96 262.77ZM445.16 292V265.67H452.63V292H445.16Z" fill="white"/>
<path d="M490.75 292V277.35C490.852 275.926 490.452 274.511 489.62 273.35C489.218 272.893 488.717 272.535 488.156 272.301C487.595 272.067 486.987 271.964 486.38 272C485.761 271.968 485.143 272.072 484.57 272.305C483.996 272.538 483.48 272.895 483.06 273.35C482.182 274.49 481.754 275.914 481.86 277.35V292H474.39V277.35C474.492 275.926 474.092 274.511 473.26 273.35C472.858 272.893 472.357 272.535 471.796 272.301C471.235 272.067 470.627 271.964 470.02 272C469.401 271.968 468.783 272.072 468.21 272.305C467.636 272.538 467.12 272.895 466.7 273.35C465.822 274.49 465.394 275.914 465.5 277.35V292H458.03V265.67H465.47V269.43C465.898 268.861 466.366 268.323 466.87 267.82C467.383 267.308 467.95 266.852 468.56 266.46C469.211 266.053 469.914 265.737 470.65 265.52C471.489 265.279 472.358 265.161 473.23 265.17C474.797 265.131 476.346 265.507 477.72 266.26C478.984 266.987 480.003 268.073 480.65 269.38C481.694 268.078 482.999 267.009 484.48 266.24C485.976 265.508 487.625 265.142 489.29 265.17C490.491 265.101 491.694 265.284 492.82 265.708C493.947 266.131 494.972 266.786 495.83 267.63C497.403 269.27 498.19 271.677 498.19 274.85V292H490.75Z" fill="white"/>
<path d="M503.23 262.77V256.19H511.09V262.82L503.23 262.77ZM503.42 292V265.67H510.89V292H503.42Z" fill="white"/>
<path d="M540.83 280.5C540.83 280.76 540.83 281.08 540.76 281.44H522.47C522.722 282.954 523.519 284.323 524.71 285.29C525.923 286.185 527.403 286.643 528.91 286.59C530.055 286.609 531.191 286.395 532.25 285.96C533.353 285.432 534.365 284.734 535.25 283.89L539.52 287.67C538.299 289.195 536.755 290.431 535 291.29C533.046 292.193 530.912 292.638 528.76 292.59C526.887 292.602 525.028 292.262 523.28 291.59C521.644 290.971 520.156 290.017 518.91 288.79C517.675 287.567 516.699 286.108 516.04 284.5C515.343 282.741 515.003 280.861 515.04 278.97V278.87C515.048 277.057 515.386 275.261 516.04 273.57C516.646 271.952 517.556 270.466 518.72 269.19C519.917 267.904 521.37 266.884 522.986 266.195C524.602 265.506 526.344 265.164 528.1 265.19C530.065 265.143 532.015 265.547 533.8 266.37C535.35 267.12 536.715 268.203 537.8 269.54C538.876 270.896 539.678 272.448 540.16 274.11C540.668 275.858 540.924 277.67 540.92 279.49V279.59C540.88 279.937 540.85 280.24 540.83 280.5ZM531.83 272.72C531.349 272.202 530.76 271.795 530.106 271.527C529.451 271.26 528.746 271.138 528.04 271.17C527.335 271.141 526.632 271.261 525.977 271.523C525.322 271.785 524.73 272.183 524.24 272.69C523.213 273.829 522.555 275.251 522.35 276.77H533.6C533.442 275.268 532.82 273.852 531.82 272.72H531.83Z" fill="white"/>
<path d="M561.47 292V277.35C561.577 275.917 561.157 274.495 560.29 273.35C559.868 272.891 559.35 272.532 558.772 272.299C558.194 272.065 557.572 271.963 556.95 272C556.318 271.967 555.686 272.071 555.098 272.304C554.51 272.537 553.978 272.893 553.54 273.35C552.623 274.473 552.172 275.904 552.28 277.35V292H544.82V265.67H552.28V269.43C552.714 268.866 553.181 268.328 553.68 267.82C554.197 267.308 554.767 266.852 555.38 266.46C556.022 266.057 556.715 265.741 557.44 265.52C558.271 265.277 559.134 265.159 560 265.17C561.224 265.096 562.45 265.291 563.59 265.742C564.73 266.193 565.758 266.888 566.6 267.78C568.255 269.79 569.091 272.351 568.94 274.95V292H561.47Z" fill="white"/>
<path d="M585.95 292.02C584.879 292.316 583.771 292.458 582.66 292.44C581.608 292.453 580.559 292.329 579.54 292.07C578.641 291.843 577.813 291.396 577.13 290.77C576.425 290.093 575.887 289.261 575.56 288.34C575.153 287.112 574.963 285.823 575 284.53V272.05H571.85V265.67H575V258.94H582.47V265.67H588.65V272.05H582.47V283.3C582.47 285.01 583.27 285.86 584.87 285.86C586.16 285.867 587.43 285.543 588.56 284.92V290.92C587.737 291.39 586.861 291.76 585.95 292.02V292.02Z" fill="white"/>
<path d="M618.67 284.19C617.965 285.823 616.946 287.301 615.67 288.54C614.367 289.804 612.832 290.806 611.15 291.49C609.348 292.23 607.418 292.604 605.47 292.59C603.536 292.607 601.617 292.247 599.82 291.53C598.159 290.882 596.643 289.909 595.36 288.67C594.078 287.43 593.055 285.948 592.35 284.31C591.624 282.628 591.256 280.812 591.27 278.98V278.88C591.257 277.048 591.625 275.233 592.35 273.55C593.057 271.919 594.076 270.441 595.35 269.2C596.654 267.939 598.189 266.941 599.87 266.26C601.676 265.522 603.61 265.152 605.56 265.17C607.494 265.156 609.413 265.516 611.21 266.23C612.885 266.894 614.413 267.88 615.71 269.13C616.983 270.36 618.002 271.828 618.71 273.45C619.435 275.133 619.803 276.948 619.79 278.78V278.88C619.789 280.709 619.407 282.517 618.67 284.19V284.19ZM612.38 278.86C612.388 277.914 612.222 276.975 611.89 276.09C611.244 274.359 609.939 272.953 608.26 272.18C607.38 271.784 606.425 271.582 605.46 271.59C604.47 271.572 603.488 271.766 602.58 272.16C601.769 272.516 601.043 273.041 600.45 273.7C599.854 274.369 599.393 275.147 599.09 275.99C598.778 276.88 598.622 277.817 598.63 278.76V278.86C598.622 279.809 598.789 280.751 599.12 281.64C599.444 282.493 599.925 283.276 600.54 283.95C601.158 284.619 601.903 285.159 602.73 285.54C603.613 285.947 604.578 286.149 605.55 286.13C606.539 286.147 607.52 285.956 608.43 285.57C609.24 285.207 609.965 284.679 610.56 284.02C611.156 283.351 611.617 282.573 611.92 281.73C612.233 280.84 612.389 279.903 612.38 278.96V278.86Z" fill="white"/>
<path d="M24.32 526.93C21.923 527.927 19.3457 528.417 16.75 528.37C14.4846 528.396 12.2348 527.993 10.12 527.18C8.19928 526.427 6.44832 525.299 4.97001 523.86C3.52957 522.435 2.39034 520.734 1.62001 518.86C0.80455 516.836 0.396744 514.672 0.42001 512.49V512.4C0.401534 509.25 1.31938 506.165 3.05706 503.537C4.79474 500.909 7.27392 498.856 10.18 497.64C12.2494 496.784 14.4706 496.355 16.71 496.38C17.9792 496.372 19.2468 496.469 20.5 496.67C21.5793 496.847 22.6403 497.121 23.67 497.49C24.6316 497.834 25.5536 498.279 26.42 498.82C27.2948 499.359 28.1273 499.964 28.91 500.63L24.6 505.81C24.037 505.332 23.4459 504.888 22.83 504.48C22.2481 504.092 21.6323 503.757 20.99 503.48C20.3252 503.206 19.6353 502.999 18.93 502.86C18.126 502.706 17.3086 502.632 16.49 502.64C15.2837 502.632 14.0911 502.895 13 503.41C10.8172 504.457 9.11765 506.3 8.25001 508.56C7.7934 509.757 7.56283 511.029 7.57001 512.31V512.39C7.55776 513.73 7.78814 515.062 8.25001 516.32C8.69868 517.488 9.379 518.552 10.25 519.45C11.0993 520.334 12.1202 521.035 13.25 521.51C14.45 522.01 15.74 522.259 17.04 522.24C19.3309 522.317 21.5868 521.662 23.48 520.37V515.89H16.6V510.01H30.09V523.46C28.349 524.896 26.4045 526.065 24.32 526.93V526.93Z" fill="#808080"/>
<path d="M63.91 518.57C63.1016 520.496 61.9191 522.243 60.4308 523.709C58.9426 525.175 57.1782 526.331 55.24 527.11C53.1351 527.965 50.8816 528.393 48.61 528.37C46.3447 528.395 44.0974 527.966 42 527.11C40.0585 526.317 38.2867 525.159 36.78 523.7C35.3203 522.278 34.1608 520.578 33.37 518.7C32.5463 516.731 32.1313 514.615 32.15 512.48V512.39C32.1339 510.254 32.5559 508.137 33.39 506.17C34.1983 504.271 35.3664 502.546 36.83 501.09C38.331 499.607 40.1077 498.431 42.06 497.63C44.1682 496.775 46.4251 496.347 48.7 496.37C50.9653 496.346 53.2126 496.774 55.31 497.63C57.2465 498.428 59.0143 499.585 60.52 501.04C61.9863 502.478 63.1493 504.195 63.94 506.09C64.759 508.057 65.1739 510.169 65.16 512.3V512.39C65.1683 514.514 64.743 516.617 63.91 518.57V518.57ZM58.01 512.35C58.0164 511.066 57.7858 509.791 57.33 508.59C56.8761 507.434 56.1962 506.38 55.33 505.49C54.4757 504.602 53.4568 503.889 52.33 503.39C51.1416 502.871 49.8569 502.609 48.56 502.62C47.2549 502.603 45.9606 502.858 44.76 503.37C43.6515 503.851 42.6566 504.56 41.84 505.45C41.0164 506.345 40.3684 507.386 39.93 508.52C39.4662 509.712 39.2321 510.981 39.24 512.26V512.35C39.2322 513.636 39.4663 514.911 39.93 516.11C40.3849 517.266 41.0647 518.319 41.93 519.21C42.7794 520.104 43.7995 520.818 44.93 521.31C46.1255 521.841 47.4219 522.108 48.73 522.09C50.0249 522.103 51.3084 521.847 52.5 521.34C53.615 520.855 54.6189 520.147 55.45 519.26C56.2704 518.359 56.9179 517.315 57.36 516.18C57.8168 514.986 58.0474 513.718 58.04 512.44L58.01 512.35Z" fill="#808080"/>
<path d="M93.7099 523.06C93.1574 524.126 92.3502 525.04 91.3599 525.72C90.241 526.471 88.9936 527.01 87.6799 527.31C86.1202 527.677 84.5221 527.855 82.9199 527.84H68.1699V496.84H82.5699C85.2442 496.687 87.8904 497.453 90.0699 499.01C90.9541 499.698 91.6625 500.587 92.1371 501.602C92.6116 502.617 92.8388 503.73 92.7999 504.85V504.94C92.8133 505.736 92.702 506.529 92.4699 507.29C92.2622 507.937 91.9661 508.553 91.5899 509.12C91.2308 509.656 90.8001 510.14 90.3099 510.56C89.8295 510.973 89.3026 511.329 88.7399 511.62C90.3597 512.18 91.8162 513.132 92.9799 514.39C94.0801 515.758 94.6326 517.487 94.5299 519.24V519.32C94.5598 520.614 94.2786 521.897 93.7099 523.06ZM86.0499 506.06C86.0748 505.601 85.9823 505.144 85.7811 504.731C85.5798 504.318 85.2765 503.963 84.8999 503.7C83.9007 503.091 82.7378 502.804 81.5699 502.88H74.8299V509.43H81.1299C82.3745 509.491 83.6131 509.222 84.7199 508.65C85.1545 508.401 85.51 508.034 85.7453 507.592C85.9805 507.149 86.0862 506.65 86.0499 506.15V506.06ZM87.7799 518.45C87.7956 517.976 87.6954 517.505 87.4881 517.078C87.2807 516.651 86.9724 516.281 86.5899 516C85.4313 515.297 84.0803 514.979 82.7299 515.09H74.8299V521.91H82.9499C84.1866 521.973 85.4162 521.689 86.4999 521.09C86.9215 520.818 87.2626 520.438 87.4877 519.989C87.7127 519.541 87.8137 519.04 87.7799 518.54V518.45Z" fill="#808080"/>
<path d="M97.47 527.84V496.84H104.3V527.84H97.47Z" fill="#808080"/>
<path d="M108.99 527.84V496.84H132.37V502.91H115.74V509.19H130.38V515.25H115.74V521.76H132.59V527.82L108.99 527.84Z" fill="#808080"/>
<path d="M154.47 527.84L147.82 517.93H142.47V527.84H135.64V496.84H149.83C153.53 496.84 156.407 497.74 158.46 499.54C159.502 500.487 160.321 501.654 160.855 502.956C161.39 504.259 161.627 505.664 161.55 507.07V507.19C161.646 509.383 160.998 511.543 159.71 513.32C158.463 514.911 156.792 516.117 154.89 516.8L162.47 527.84H154.47ZM154.61 507.44C154.65 506.814 154.543 506.187 154.296 505.611C154.049 505.034 153.67 504.523 153.19 504.12C152.033 503.322 150.643 502.935 149.24 503.02H142.47V511.91H149.39C150.787 512.005 152.17 511.577 153.27 510.71C153.72 510.316 154.076 509.825 154.311 509.275C154.547 508.724 154.656 508.128 154.63 507.53L154.61 507.44Z" fill="#808080"/>
<path d="M186.47 527.84L171.47 508.19V527.88H164.67V496.88H170.97L185.53 515.96V496.86H192.27V527.86L186.47 527.84Z" fill="#808080"/>
<path d="M227.05 518.57C226.242 520.496 225.059 522.243 223.571 523.709C222.082 525.175 220.318 526.331 218.38 527.11C216.275 527.964 214.021 528.393 211.75 528.37C209.485 528.395 207.237 527.966 205.14 527.11C203.198 526.316 201.427 525.159 199.92 523.7C198.46 522.278 197.301 520.578 196.51 518.7C195.686 516.731 195.271 514.615 195.29 512.48V512.39C195.274 510.254 195.696 508.137 196.53 506.17C197.338 504.271 198.506 502.546 199.97 501.09C201.471 499.607 203.248 498.431 205.2 497.63C209.456 495.945 214.194 495.945 218.45 497.63C220.386 498.427 222.154 499.584 223.66 501.04C225.126 502.478 226.289 504.195 227.08 506.09C227.899 508.057 228.314 510.169 228.3 512.3V512.39C228.308 514.514 227.883 516.617 227.05 518.57ZM221.15 512.35C221.156 511.065 220.926 509.791 220.47 508.59C220.016 507.434 219.336 506.38 218.47 505.49C217.616 504.602 216.597 503.889 215.47 503.39C214.281 502.872 212.997 502.609 211.7 502.62C210.395 502.603 209.101 502.858 207.9 503.37C206.79 503.848 205.795 504.557 204.98 505.45C204.156 506.344 203.508 507.386 203.07 508.52C202.606 509.712 202.372 510.981 202.38 512.26V512.35C202.372 513.635 202.606 514.911 203.07 516.11C203.525 517.266 204.205 518.319 205.07 519.21C205.919 520.104 206.939 520.818 208.07 521.31C209.265 521.841 210.562 522.107 211.87 522.09C213.165 522.102 214.448 521.847 215.64 521.34C216.755 520.855 217.759 520.147 218.59 519.26C219.399 518.36 220.036 517.319 220.47 516.19C220.927 514.996 221.157 513.728 221.15 512.45V512.35Z" fill="#808080"/>
<path d="M264.68 527.84L261.84 520.89H248.7L245.87 527.84H238.87L252.18 496.64H258.47L271.78 527.84H264.68ZM255.27 504.84L251.14 514.84H259.4L255.27 504.84Z" fill="#808080"/>
<path d="M299.17 520.49C298.606 522.133 297.672 523.625 296.44 524.85C295.227 526.04 293.756 526.934 292.14 527.46C290.325 528.06 288.422 528.354 286.51 528.33C282.337 528.33 279.053 527.18 276.66 524.88C274.26 522.57 273.06 519.14 273.06 514.56V496.86H279.9V514.39C279.9 516.93 280.49 518.84 281.67 520.12C282.305 520.774 283.072 521.283 283.921 521.615C284.77 521.946 285.68 522.091 286.59 522.04C287.496 522.092 288.403 521.953 289.252 521.633C290.101 521.312 290.874 520.817 291.52 520.18C292.7 518.947 293.29 517.09 293.29 514.61V496.86H300.13V514.34C300.173 516.43 299.848 518.512 299.17 520.49V520.49Z" fill="#808080"/>
<path d="M318.1 503.19V527.88H311.26V503.19H301.81V496.9H327.55V503.19H318.1Z" fill="#808080"/>
<path d="M360.11 518.57C359.297 520.494 358.113 522.238 356.625 523.704C355.138 525.169 353.376 526.327 351.44 527.11C347.184 528.795 342.446 528.795 338.19 527.11C336.253 526.314 334.485 525.157 332.98 523.7C331.52 522.276 330.358 520.577 329.56 518.7C328.741 516.729 328.326 514.614 328.34 512.48V512.39C328.327 510.253 328.753 508.136 329.59 506.17C330.394 504.268 331.562 502.542 333.03 501.09C334.529 499.605 336.306 498.429 338.26 497.63C340.365 496.776 342.618 496.347 344.89 496.37C347.142 496.337 349.379 496.752 351.47 497.59C353.409 498.387 355.181 499.544 356.69 501C358.156 502.435 359.317 504.153 360.1 506.05C360.924 508.016 361.339 510.129 361.32 512.26V512.35C361.346 514.484 360.935 516.601 360.11 518.57V518.57ZM354.21 512.35C354.218 511.065 353.984 509.789 353.52 508.59C353.083 507.439 352.421 506.386 351.573 505.493C350.725 504.6 349.707 503.885 348.58 503.39C347.391 502.872 346.107 502.609 344.81 502.62C343.505 502.602 342.21 502.857 341.01 503.37C339.898 503.851 338.9 504.559 338.08 505.45C337.259 506.345 336.615 507.387 336.18 508.52C335.716 509.712 335.482 510.981 335.49 512.26V512.35C335.482 513.636 335.716 514.911 336.18 516.11C336.627 517.27 337.308 518.325 338.18 519.21C339.029 520.104 340.049 520.818 341.18 521.31C342.372 521.842 343.665 522.108 344.97 522.09C346.268 522.102 347.555 521.847 348.75 521.34C349.865 520.855 350.869 520.147 351.7 519.26C352.517 518.359 353.161 517.315 353.6 516.18C354.065 514.988 354.299 513.719 354.29 512.44L354.21 512.35ZM342.47 494.43L347.47 486.6L353.28 489.12L347.6 494.43H342.47Z" fill="#808080"/>
<path d="M386.16 527.84L371.11 508.19V527.88H364.37V496.88H370.67L385.22 515.96V496.86H391.97V527.86L386.16 527.84Z" fill="#808080"/>
<path d="M426.75 518.57C425.937 520.494 424.753 522.238 423.265 523.704C421.778 525.169 420.016 526.327 418.08 527.11C413.824 528.795 409.086 528.795 404.83 527.11C402.893 526.314 401.125 525.157 399.62 523.7C398.16 522.276 396.998 520.577 396.2 518.7C395.381 516.729 394.966 514.614 394.98 512.48V512.39C394.967 510.253 395.393 508.136 396.23 506.17C397.034 504.268 398.202 502.542 399.67 501.09C401.169 499.605 402.946 498.429 404.9 497.63C407.005 496.776 409.258 496.347 411.53 496.37C413.795 496.346 416.043 496.774 418.14 497.63C420.079 498.427 421.851 499.584 423.36 501.04C424.826 502.475 425.987 504.194 426.77 506.09C427.594 508.056 428.009 510.169 427.99 512.3V512.39C428.001 514.513 427.58 516.616 426.75 518.57ZM420.85 512.35C420.858 511.065 420.624 509.789 420.16 508.59C419.723 507.439 419.061 506.386 418.213 505.493C417.365 504.6 416.347 503.885 415.22 503.39C414.031 502.872 412.747 502.609 411.45 502.62C410.145 502.602 408.85 502.857 407.65 503.37C406.538 503.851 405.54 504.559 404.72 505.45C403.9 506.345 403.255 507.387 402.82 508.52C402.356 509.712 402.122 510.981 402.13 512.26V512.35C402.122 513.636 402.356 514.911 402.82 516.11C403.252 517.265 403.916 518.32 404.77 519.21C405.619 520.104 406.639 520.818 407.77 521.31C408.962 521.842 410.255 522.108 411.56 522.09C412.858 522.102 414.145 521.847 415.34 521.34C416.455 520.855 417.459 520.147 418.29 519.26C419.107 518.359 419.751 517.315 420.19 516.18C420.655 514.988 420.889 513.719 420.88 512.44L420.85 512.35Z" fill="#808080"/>
<path d="M455.32 527.84V507.62L446.58 520.85H446.41L437.76 507.75V527.84H431.01V496.84H438.38L446.54 509.94L454.7 496.84H462.07V527.84H455.32Z" fill="#808080"/>
<path d="M496.85 518.57C496.037 520.494 494.853 522.238 493.365 523.703C491.878 525.169 490.116 526.326 488.18 527.11C486.075 527.964 483.822 528.393 481.55 528.37C479.285 528.395 477.037 527.966 474.94 527.11C472.998 526.316 471.227 525.159 469.72 523.7C468.26 522.278 467.101 520.578 466.31 518.7C465.486 516.731 465.071 514.615 465.09 512.48V512.39C465.074 510.254 465.496 508.137 466.33 506.17C467.138 504.271 468.306 502.546 469.77 501.09C471.271 499.607 473.048 498.431 475 497.63C479.256 495.945 483.994 495.945 488.25 497.63C490.186 498.427 491.954 499.584 493.46 501.04C494.926 502.478 496.089 504.195 496.88 506.09C497.699 508.057 498.114 510.169 498.1 512.3V512.39C498.108 514.514 497.683 516.617 496.85 518.57V518.57ZM490.95 512.35C490.958 511.064 490.724 509.789 490.26 508.59C489.825 507.436 489.162 506.382 488.31 505.49C487.456 504.602 486.437 503.889 485.31 503.39C484.121 502.872 482.837 502.609 481.54 502.62C480.235 502.603 478.941 502.858 477.74 503.37C476.628 503.851 475.63 504.559 474.81 505.45C473.99 506.345 473.345 507.386 472.91 508.52C472.446 509.712 472.212 510.981 472.22 512.26V512.35C472.212 513.635 472.446 514.911 472.91 516.11C473.347 517.258 474.007 518.308 474.851 519.201C475.696 520.093 476.708 520.81 477.83 521.31C479.025 521.843 480.322 522.109 481.63 522.09C482.925 522.102 484.208 521.847 485.4 521.34C486.515 520.855 487.519 520.147 488.35 519.26C489.171 518.361 489.815 517.317 490.25 516.18C490.715 514.988 490.949 513.719 490.94 512.44L490.95 512.35Z" fill="#808080"/>
<path d="M535.67 527.84V507.62L526.93 520.85H526.76L518.1 507.75V527.84H511.36V496.84H518.73L526.89 509.94L535.05 496.84H542.47V527.84H535.67Z" fill="#808080"/>
<path d="M572.47 520.49C571.906 522.133 570.972 523.625 569.74 524.85C568.527 526.04 567.056 526.934 565.44 527.46C563.625 528.06 561.722 528.354 559.81 528.33C555.643 528.33 552.36 527.18 549.96 524.88C547.56 522.57 546.36 519.14 546.36 514.56V496.86H553.2V514.39C553.2 516.93 553.79 518.84 554.97 520.12C555.606 520.774 556.376 521.285 557.226 521.616C558.077 521.947 558.989 522.092 559.9 522.04C560.805 522.091 561.71 521.952 562.557 521.632C563.405 521.311 564.175 520.817 564.82 520.18C566 518.947 566.59 517.09 566.59 514.61V496.86H573.43V514.34C573.473 516.43 573.148 518.512 572.47 520.49Z" fill="#808080"/>
<path d="M599.08 527.84L584.08 508.15V527.84H577.33V496.84H583.63L598.18 515.92V496.86H604.93V527.86L599.08 527.84Z" fill="#808080"/>
<path d="M609.59 527.84V496.84H616.47V527.84H609.59Z" fill="#808080"/>
<path d="M645.93 525.19C645.058 525.876 644.112 526.463 643.11 526.94C642.042 527.442 640.917 527.811 639.76 528.04C638.417 528.309 637.05 528.437 635.68 528.42C633.504 528.442 631.347 528.02 629.34 527.18C627.447 526.406 625.728 525.259 624.287 523.807C622.845 522.356 621.711 520.629 620.95 518.73C620.144 516.749 619.736 514.629 619.75 512.49V512.4C619.712 508.184 621.34 504.123 624.28 501.1C625.733 499.619 627.467 498.443 629.38 497.64C631.462 496.78 633.697 496.351 635.95 496.38C637.292 496.367 638.632 496.488 639.95 496.74C641.068 496.961 642.16 497.296 643.21 497.74C644.163 498.141 645.069 498.648 645.91 499.25C646.733 499.831 647.506 500.48 648.22 501.19L643.87 506.19C642.761 505.17 641.516 504.308 640.17 503.63C638.848 502.996 637.396 502.677 635.93 502.7C634.687 502.687 633.455 502.943 632.32 503.45C631.228 503.934 630.25 504.643 629.45 505.53C628.645 506.429 628.015 507.47 627.59 508.6C627.146 509.796 626.922 511.064 626.93 512.34V512.43C626.922 513.713 627.146 514.987 627.59 516.19C628.006 517.328 628.63 518.379 629.43 519.29C630.245 520.206 631.247 520.937 632.368 521.434C633.489 521.931 634.704 522.182 635.93 522.17C637.49 522.212 639.035 521.869 640.43 521.17C641.764 520.451 642.998 519.56 644.1 518.52L648.44 522.9C647.663 523.727 646.824 524.492 645.93 525.19V525.19Z" fill="#808080"/>
<path d="M651.12 527.84V496.84H657.95V527.84H651.12Z" fill="#808080"/>
<path d="M686.26 512.4C685.633 513.722 684.713 514.885 683.57 515.8C682.385 516.742 681.026 517.442 679.57 517.86C677.979 518.33 676.328 518.562 674.67 518.55H669.47V527.84H662.64V496.84H675.32C677.019 496.813 678.71 497.077 680.32 497.62C681.696 498.09 682.961 498.835 684.04 499.81C685.062 500.75 685.865 501.904 686.39 503.19C686.951 504.574 687.23 506.057 687.21 507.55V507.64C687.256 509.278 686.931 510.905 686.26 512.4ZM680.31 507.71C680.354 507.051 680.243 506.392 679.986 505.784C679.729 505.176 679.333 504.637 678.83 504.21C677.655 503.356 676.22 502.936 674.77 503.02H669.47V512.48H674.88C676.338 512.578 677.776 512.097 678.88 511.14C679.34 510.714 679.705 510.195 679.95 509.617C680.195 509.04 680.314 508.417 680.3 507.79L680.31 507.71Z" fill="#808080"/>
<path d="M712.35 527.84L709.47 520.89H696.37L693.54 527.84H686.54L699.85 496.64H706.15L719.47 527.84H712.35ZM702.94 504.84L698.81 514.84H707.07L702.94 504.84Z" fill="#808080"/>
<path d="M721.22 527.84V496.84H728.05V521.69H743.54V527.84H721.22Z" fill="#808080"/>
</svg>